<svg width="155" height="155" viewBox="0 0 155 155" fill="none" xmlns="http://www.w3.org/2000/svg">
<rect x="27.5" y="28.5" width="99" height="99" fill="white" stroke="white"/>
<mask id="path-2-inside-1_81_68" fill="white">
<path d="M134 0C145.598 0 155 9.40202 155 21V134C155 145.598 145.598 155 134 155H21C9.40202 155 4.10741e-07 145.598 0 134V21C0 9.40202 9.40202 4.10714e-07 21 0H134ZM32.5498 62.6777H48.4014V103.85H62.5029V62.6777H78.3535V51.1504H32.5498V62.6777ZM77.6943 89.3574V103.85H122.983V89.3574H77.6943Z"/>
</mask>
<path d="M134 0C145.598 0 155 9.40202 155 21V134C155 145.598 145.598 155 134 155H21C9.40202 155 4.10741e-07 145.598 0 134V21C0 9.40202 9.40202 4.10714e-07 21 0H134ZM32.5498 62.6777H48.4014V103.85H62.5029V62.6777H78.3535V51.1504H32.5498V62.6777ZM77.6943 89.3574V103.85H122.983V89.3574H77.6943Z" fill="black"/>
<path d="M155 21H156V21H155ZM134 155V156V156V155ZM0 134H-1V134H0ZM21 0V-1V-1V0ZM32.5498 62.6777H31.5498V63.6777H32.5498V62.6777ZM48.4014 62.6777H49.4014V61.6777H48.4014V62.6777ZM48.4014 103.85H47.4014V104.85H48.4014V103.85ZM62.5029 103.85V104.85H63.5029V103.85H62.5029ZM62.5029 62.6777V61.6777H61.5029V62.6777H62.5029ZM78.3535 62.6777V63.6777H79.3535V62.6777H78.3535ZM78.3535 51.1504H79.3535V50.1504H78.3535V51.1504ZM32.5498 51.1504V50.1504H31.5498V51.1504H32.5498ZM77.6943 89.3574V88.3574H76.6943V89.3574H77.6943ZM77.6943 103.85H76.6943V104.85H77.6943V103.85ZM122.983 103.85V104.85H123.983V103.85H122.983ZM122.983 89.3574H123.983V88.3574H122.983V89.3574ZM134 0V1C145.046 1 154 9.95431 154 21H155H156C156 8.84974 146.15 -1 134 -1V0ZM155 21H154V134H155H156V21H155ZM155 134H154C154 145.046 145.046 154 134 154V155V156C146.15 156 156 146.15 156 134H155ZM134 155V154H21V155V156H134V155ZM21 155V154C9.95431 154 1 145.046 1 134H0H-1C-1 146.15 8.84974 156 21 156V155ZM0 134H1V21H0H-1V134H0ZM0 21H1C1 9.95431 9.95431 1 21 1V0V-1C8.84974 -1 -1 8.84974 -1 21H0ZM21 0V1H134V0V-1H21V0ZM32.5498 62.6777V63.6777H48.4014V62.6777V61.6777H32.5498V62.6777ZM48.4014 62.6777H47.4014V103.85H48.4014H49.4014V62.6777H48.4014ZM48.4014 103.85V104.85H62.5029V103.85V102.85H48.4014V103.85ZM62.5029 103.85H63.5029V62.6777H62.5029H61.5029V103.85H62.5029ZM62.5029 62.6777V63.6777H78.3535V62.6777V61.6777H62.5029V62.6777ZM78.3535 62.6777H79.3535V51.1504H78.3535H77.3535V62.6777H78.3535ZM78.3535 51.1504V50.1504H32.5498V51.1504V52.1504H78.3535V51.1504ZM32.5498 51.1504H31.5498V62.6777H32.5498H33.5498V51.1504H32.5498ZM77.6943 89.3574H76.6943V103.85H77.6943H78.6943V89.3574H77.6943ZM77.6943 103.85V104.85H122.983V103.85V102.85H77.6943V103.85ZM122.983 103.85H123.983V89.3574H122.983H121.983V103.85H122.983ZM122.983 89.3574V88.3574H77.6943V89.3574V90.3574H122.983V89.3574Z" fill="white" mask="url(#path-2-inside-1_81_68)"/>
</svg>
